<svg viewBox="0 0 24 24" width="24" height="24">
    <path
        id="collection_border-75c45573e9363c7b32ebea7827cfee9f_Path_2324"
        d="M0,0H24V24H0Z"
        fill="none"
    ></path>
    <path
        id="collection_border-75c45573e9363c7b32ebea7827cfee9f_Path_2325"
        d="M15,7V19.97l-4.21-1.81L10,17.82l-.79.34L5,19.97V7H15m4-6H8.99A2,2,0,0,0,7,3H17a2.006,2.006,0,0,1,2,2V18l2,1V3A2.006,2.006,0,0,0,19,1ZM15,5H5A2.006,2.006,0,0,0,3,7V23l7-3,7,3V7A2.006,2.006,0,0,0,15,5Z"
    ></path>
</svg>