<svg viewBox="0 0 24 24" width="24" height="24">
    <path
        d="M19.519,9.6A5.717,5.717,0,0,0,14,4.858h0a5.238,5.238,0,0,0-1.8.278A5.692,5.692,0,0,0,9.616,6.8l-.1-.116a5.377,5.377,0,0,0-4.229-1.85,4.188,4.188,0,0,0-.481.019A5.451,5.451,0,0,0,1.057,6.8,6.306,6.306,0,0,0,.035,13.032a13.481,13.481,0,0,0,2.558,4.048,35.618,35.618,0,0,0,6.85,5.754.31.31,0,0,0,.173.058.27.27,0,0,0,.173-.058,36.676,36.676,0,0,0,5.47-4.276A18.5,18.5,0,0,0,18.636,14.4,7.4,7.4,0,0,0,19.519,9.6Zm-2.753,3.753a15.6,15.6,0,0,1-3.057,3.724,36.039,36.039,0,0,1-4.1,3.379,33.6,33.6,0,0,1-5.322-4.64,10.684,10.684,0,0,1-2.183-3.225,3.947,3.947,0,0,1,.487-4.367,2.955,2.955,0,0,1,2.38-1.222H5.3A4.416,4.416,0,0,1,8.53,8.741l.077.1.039.039,1.04,1.117.982-1.155a5.186,5.186,0,0,1,2.014-1.58A4.432,4.432,0,0,1,14,7.006a3.486,3.486,0,0,1,3.426,2.857A5.088,5.088,0,0,1,16.765,13.357Z"
        transform="translate(2.375 -1.865)"
    ></path>
</svg>